<svg xmlns="http://www.w3.org/2000/svg" width="688" height="688" viewBox="0 0 688 688"><g transform="translate(-43 -43)"><g transform="translate(43 43)" fill="none" stroke="#024165" stroke-width="40"><circle cx="344" cy="344" r="344" stroke="none"/><circle cx="344" cy="344" r="324" fill="none"/></g><g transform="translate(223.852 223.852)" fill="#09789f"><path d="M 163.148193359375 316.29638671875 C 78.70199584960938 316.29638671875 9.999993324279785 247.5943908691406 9.999993324279785 163.148193359375 C 9.999993324279785 78.70199584960938 78.70199584960938 9.999993324279785 163.148193359375 9.999993324279785 C 247.5943908691406 9.999993324279785 316.29638671875 78.70199584960938 316.29638671875 163.148193359375 C 316.29638671875 247.5943908691406 247.5943908691406 316.29638671875 163.148193359375 316.29638671875 Z" stroke="none"/><path d="M 163.148193359375 20 C 84.21600341796875 20 20 84.21600341796875 20 163.148193359375 C 20 242.0803833007812 84.21600341796875 306.29638671875 163.148193359375 306.29638671875 C 242.0803833007812 306.29638671875 306.29638671875 242.0803833007812 306.29638671875 163.148193359375 C 306.29638671875 84.21600341796875 242.0803833007812 20 163.148193359375 20 M 163.148193359375 0 C 253.25244140625 0 326.29638671875 73.0439453125 326.29638671875 163.148193359375 C 326.29638671875 253.25244140625 253.25244140625 326.29638671875 163.148193359375 326.29638671875 C 73.0439453125 326.29638671875 0 253.25244140625 0 163.148193359375 C 0 73.0439453125 73.0439453125 0 163.148193359375 0 Z" stroke="none" fill="#09779e"/></g></g></svg>