<svg xmlns="http://www.w3.org/2000/svg" width="688" height="688" viewBox="0 0 688 688"><g transform="translate(-43 -43)"><g transform="translate(43 43)" fill="#ffb655" stroke="#272727" stroke-width="40"><circle cx="344" cy="344" r="344" stroke="none"/><circle cx="344" cy="344" r="324" fill="none"/></g><g transform="translate(322.156 131.392)" fill="#272727"><path d="M 64.84391021728516 496.296630859375 C 48.45298385620117 463.6437683105469 9.999987602233887 356.5713500976562 9.999987602233887 245.6235809326172 C 9.999987602233887 131.6531372070312 49.40265274047852 41.14670944213867 64.84391021728516 15.34820747375488 C 80.28517150878906 41.14670944213867 119.6878356933594 131.6531372070312 119.6878356933594 245.6235809326172 C 119.6878356933594 356.5713500976562 81.23484039306641 463.6437683105469 64.84391021728516 496.296630859375 Z" stroke="none"/><path d="M 64.84391021728516 36.91091918945312 C 47.51641845703125 73.9593505859375 19.99999237060547 153.0248718261719 19.99999237060547 245.6236267089844 C 19.99999237060547 339.7480163574219 47.29763031005859 427.616943359375 64.84390258789062 471.260498046875 C 82.39018249511719 427.6169128417969 109.6878280639648 339.7478942871094 109.6878280639648 245.6236267089844 C 109.6878280639648 153.0248718261719 82.17140197753906 73.9593505859375 64.84391021728516 36.91091918945312 M 64.84391021728516 -6.103515625e-05 C 73.02140808105469 -6.103515625e-05 129.6878204345703 109.9694519042969 129.6878204345703 245.6236267089844 C 129.6878204345703 381.2777099609375 72.82965850830078 513.6083374023438 64.84391021728516 513.6083374023438 C 56.85807800292969 513.6083374023438 0 381.2777099609375 0 245.6236267089844 C 0 109.9694519042969 56.66641235351562 -6.103515625e-05 64.84391021728516 -6.103515625e-05 Z" stroke="none" fill="#272727"/></g></g></svg>